<svg xmlns="http://www.w3.org/2000/svg" fill="none" viewBox="0 0 24 24" height="24" width="24">
    <g>
        <path fill="#1E3A8A" d="M2 12c0 -4.71405 0 -7.07107 1.46447 -8.53553C4.92893 2 7.28595 2 12 2c4.714 0 7.0711 0 8.5355 1.46447C22 4.92893 22 7.28595 22 12c0 4.714 0 7.0711 -1.4645 8.5355C19.0711 22 16.714 22 12 22c-4.71405 0 -7.07107 0 -8.53553 -1.4645C2 19.0711 2 16.714 2 12Z"></path>
        <path fill="#BFDBFE" d="M10.5431 7.51724c0.2857 -0.29994 0.2741 -0.77468 -0.0259 -1.06034 -0.2999 -0.28567 -0.77464 -0.27409 -1.0603 0.02586L7.14286 8.9125l-0.59976 -0.62974c-0.28566 -0.29995 -0.76039 -0.31153 -1.06034 -0.02586 -0.29995 0.28566 -0.31153 0.76039 -0.02586 1.06034l1.14286 1.19996c0.14155 0.1487 0.33784 0.2328 0.5431 0.2328 0.20526 0 0.40154 -0.0841 0.5431 -0.2328l2.85714 -2.99996Z"></path>
        <path fill="#93C5FD" d="M13 8.25c-0.4142 0 -0.75 0.33579 -0.75 0.75 0 0.41422 0.3358 0.75 0.75 0.75h5c0.4142 0 0.75 -0.33578 0.75 -0.75 0 -0.41421 -0.3358 -0.75 -0.75 -0.75h-5Z"></path>
        <path fill="#BFDBFE" d="M10.5431 14.5172c0.2857 -0.2999 0.2741 -0.7746 -0.0259 -1.0603 -0.2999 -0.2857 -0.77464 -0.2741 -1.0603 0.0259l-2.31404 2.4297 -0.59976 -0.6297c-0.28566 -0.3 -0.76039 -0.3116 -1.06034 -0.0259 -0.29995 0.2857 -0.31153 0.7604 -0.02586 1.0603l1.14286 1.2c0.14155 0.1487 0.33784 0.2328 0.5431 0.2328 0.20526 0 0.40154 -0.0841 0.5431 -0.2328l2.85714 -3Z"></path>
        <path fill="#93C5FD" d="M13 15.25c-0.4142 0 -0.75 0.3358 -0.75 0.75s0.3358 0.75 0.75 0.75h5c0.4142 0 0.75 -0.3358 0.75 -0.75s-0.3358 -0.75 -0.75 -0.75h-5Z"></path>
    </g>
</svg>